mtllib materials.mtl
v -0.001535747 0.03577423 -0.01802051
v -0.02225755 0.03889728 -0.00255084
v -0.02695771 0.03265154 -0.01328444
v -0.01197943 0.04325414 0.004638672
v 0.001122646 0.04455459 0.00635767
v 0.01353798 0.04245031 0.002145529
v 0.0219399 0.03750491 -0.006868958
v 0.02407711 0.03104377 -0.01827049
v 0.01937695 0.02479792 -0.0290041
v 0.009098824 0.02044106 -0.03619361
v -0.004003249 0.0191406 -0.03791261
v -0.01641858 0.021245 -0.03370047
v -0.0248205 0.02619028 -0.02468598
v -0.04028911 0.03379071 0.01553905
v -0.04912252 0.02205241 -0.004633427
v -0.02097256 0.04197896 0.02905083
v 0.003651291 0.04442298 0.03228152
v 0.02698449 0.0404681 0.02436543
v 0.04277492 0.03117394 0.007423639
v 0.04679158 0.01903081 -0.01400435
v 0.03795815 0.007292509 -0.03417683
v 0.01864161 -0.0008956194 -0.0476886
v -0.004681751 -0.002367496 -0.05227101
v -0.02802391 0.001093626 -0.0441525
v -0.04510589 0.009909391 -0.02606142
v -0.05345555 0.03107023 0.02406716
v -0.06535677 0.01525533 -0.003111124
v -0.02743042 0.04210222 0.04227161
v 0.005745195 0.04539502 0.0466243
v 0.03718193 0.0400666 0.03595889
v 0.05845632 0.02754462 0.01313329
v 0.06386793 0.01118422 -0.01573646
v 0.05196671 -0.004630685 -0.04291475
v 0.02594159 -0.01566255 -0.0611192
v -0.007234026 -0.01895547 -0.06547189
v -0.03867075 -0.01362705 -0.05480647
v -0.05994517 -0.001104951 -0.03198087
v -0.0601688 0.01227021 0.0407989
v -0.07370237 -0.00571382 0.009892941
v -0.03057412 0.02481532 0.06150019
v 0.007151801 0.0285598 0.06644988
v 0.04290033 0.02250051 0.05432165
v 0.06709269 0.008260965 0.02836537
v 0.07324655 -0.01034331 -0.004464149
v 0.05971297 -0.02832735 -0.03537023
v 0.03011829 -0.04087234 -0.05607152
v -0.00760762 -0.04461694 -0.06102121
v -0.04335615 -0.03855765 -0.04889297
v -0.06754852 -0.0243181 -0.02293658
v -0.05961914 -0.01034176 0.05371606
v -0.07315271 -0.0283258 0.02280998
v -0.03002447 0.002203226 0.07441735
v 0.007701457 0.005947828 0.07936704
v 0.04344999 -0.0001114607 0.06723881
v 0.06764234 -0.01435101 0.04128242
v 0.0737962 -0.03295529 0.008452892
v 0.06026262 -0.05093932 -0.02245307
v 0.03066795 -0.06348443 -0.04315436
v -0.007057969 -0.06722891 -0.04810405
v -0.04280649 -0.06116962 -0.03597581
v -0.06699887 -0.04693007 -0.01001942
v -0.05187289 -0.03403842 0.06126058
v -0.06377409 -0.04985332 0.03408229
v -0.02584776 -0.02300656 0.07946503
v 0.007327858 -0.01971364 0.08381772
v 0.0387646 -0.02504206 0.0731523
v 0.06003899 -0.03756416 0.0503267
v 0.06545059 -0.05392444 0.02145696
v 0.05354937 -0.06973934 -0.005721331
v 0.02752426 -0.08077133 -0.02392578
v -0.005651359 -0.08406413 -0.02827847
v -0.03708808 -0.07873571 -0.01761305
v -0.0583625 -0.06621373 0.005212545
v -0.03786433 -0.05596161 0.06252265
v -0.04669774 -0.06769991 0.04235017
v -0.01854777 -0.04777348 0.07603443
v 0.006076075 -0.04532933 0.07926512
v 0.02940927 -0.04928434 0.07134902
v 0.04519971 -0.05857849 0.05440724
v 0.04921635 -0.07072151 0.03297925
v 0.04038294 -0.08245981 0.01280677
v 0.02106639 -0.09064806 -0.0007050037
v -0.003557455 -0.09309208 -0.003935695
v -0.02689065 -0.0891372 0.003980398
v -0.0426811 -0.07984293 0.0209223
v -0.01928311 -0.07346702 0.05734992
v -0.02398327 -0.07971287 0.04661632
v -0.009004988 -0.06911016 0.06453943
v 0.004097082 -0.0678097 0.06625843
v 0.01651241 -0.0699141 0.06204629
v 0.02491432 -0.07485938 0.0530318
v 0.02705153 -0.08132064 0.04163027
v 0.02235138 -0.08756638 0.03089666
v 0.01207326 -0.09192324 0.02370715
v -0.00102881 -0.09322369 0.02198815
v -0.01344414 -0.09111941 0.02620029
v -0.02184606 -0.08617401 0.03521478
v 0.00162958 -0.08444333 0.04636633
v 0.01715306 0.05516374 0.007409811
v 0.01675481 0.02948534 -0.04750335
v 0.01725017 0.006759763 -0.03688014
v 0.01764841 0.03243816 0.01803303
v -0.0355347 0.04153168 -0.01929533
v -0.03503934 0.0188061 -0.008672118
vn -0.188669 0.8824669 -0.4308786
vn -0.134393 0.9208869 -0.3659316
vn -0.04966334 0.941389 -0.333647
vn 0.04280166 0.9384763 -0.342681
vn 0.1182518 0.9129255 -0.3906195
vn 0.1564408 0.8715929 -0.4645988
vn 0.1471527 0.825542 -0.5448179
vn 0.09287346 0.7871197 -0.6097681
vn 0.008146396 0.7666185 -0.6420513
vn -0.08432732 0.7695316 -0.6330166
vn -0.1597669 0.7950792 -0.5850842
vn -0.1979576 0.836413 -0.5111029
vn -0.4978275 0.8264635 -0.262918
vn -0.3427539 0.9362345 -0.07736096
vn -0.1006906 0.9948066 0.01487152
vn 0.1634927 0.9864839 -0.01093746
vn 0.3790214 0.913496 -0.1478777
vn 0.4881345 0.7954024 -0.359249
vn 0.4616004 0.6638427 -0.58842
vn 0.3065275 0.5540711 -0.7739807
vn 0.1052897 0.5296543 -0.8416534
vn -0.1966763 0.5438504 -0.8158095
vn -0.4171601 0.5896705 -0.691568
vn -0.5243624 0.6949047 -0.4920889
vn -0.3907823 0.8596408 -0.3291002
vn -0.2935828 0.9437392 -0.1522023
vn -0.0916061 0.9943293 -0.05401481
vn 0.1377255 0.9866443 -0.0869755
vn 0.298214 0.9263179 -0.230225
vn 0.345375 0.8427734 -0.412855
vn 0.2932902 0.7648914 -0.5735174
vn 0.1772526 0.7087038 -0.6828766
vn 0.06456015 0.6516734 -0.7557471
vn -0.155623 0.639344 -0.7530078
vn -0.2942149 0.7061405 -0.6440522
vn -0.3725469 0.7756968 -0.5094147
vn -0.88909 0.4374382 0.1347841
vn -0.6039427 0.639285 0.4759917
vn -0.1588445 0.7469854 0.645586
vn 0.3269404 0.7316812 0.5981243
vn 0.7232465 0.5974734 0.3463239
vn 0.9238839 0.3803227 -0.04234572
vn 0.8750921 0.1384142 -0.4637406
vn 0.5899447 -0.06343216 -0.8049483
vn 0.1448467 -0.1711324 -0.9745426
vn -0.340938 -0.1558283 -0.9270808
vn -0.7372443 -0.02162055 -0.6752803
vn -0.9378818 0.1955302 -0.2866106
vn -0.9350166 0.1584827 0.317218
vn -0.6327603 0.3724399 0.6788984
vn -0.1609564 0.4866023 0.8586683
vn 0.3539757 0.4703801 0.8083587
vn 0.7740601 0.3281198 0.5414502
vn 0.9867359 0.0979401 0.1294605
vn 0.9350165 -0.1584827 -0.3172182
vn 0.6327602 -0.3724403 -0.6788982
vn 0.1609565 -0.4866025 -0.8586681
vn -0.3539756 -0.4703802 -0.8083587
vn -0.7740601 -0.3281199 -0.5414502
vn -0.986736 -0.09793998 -0.1294603
vn -0.8750921 -0.1384145 0.4637404
vn -0.5899447 0.06343213 0.8049483
vn -0.1448468 0.1711323 0.9745426
vn 0.3409381 0.1558283 0.9270808
vn 0.7372443 0.02162058 0.6752803
vn 0.9378818 -0.1955303 0.2866107
vn 0.8890899 -0.4374385 -0.1347841
vn 0.6039425 -0.639285 -0.4759918
vn 0.1588446 -0.7469853 -0.645586
vn -0.3269403 -0.7316813 -0.5981243
vn -0.7232464 -0.5974734 -0.3463238
vn -0.9238839 -0.3803228 0.04234599
vn -0.7131 -0.4234976 0.5586933
vn -0.4782858 -0.2572803 0.8396723
vn -0.1117551 -0.1685909 0.9793304
vn 0.2882804 -0.1811935 0.9402465
vn 0.6146318 -0.2917115 0.732893
vn 0.7798534 -0.4705316 0.4128301
vn 0.7396743 -0.6697388 0.06581853
vn 0.5048603 -0.8359559 -0.2151602
vn 0.1383296 -0.9246453 -0.3548182
vn -0.261706 -0.9120427 -0.3157344
vn -0.5880575 -0.8015248 -0.1083809
vn -0.7532791 -0.6227047 0.2116821
vn -0.4616008 -0.663843 0.5884193
vn -0.306527 -0.5540712 0.7739808
vn -0.06446614 -0.4954996 0.8662127
vn 0.1997219 -0.5038227 0.8404011
vn 0.4152479 -0.5768099 0.7034626
vn 0.5243621 -0.6949045 0.4920896
vn 0.4978273 -0.8264633 0.2629191
vn 0.3427535 -0.936235 0.0773577
vn 0.1006926 -0.9948064 -0.01487401
vn -0.1634955 -0.9864835 0.0109376
vn -0.3790215 -0.9134963 0.1478759
vn -0.4881356 -0.7954016 0.3592492
vn -0.1471505 -0.8255436 0.544816
vn -0.09287152 -0.7871211 0.6097667
vn -0.008145308 -0.7666202 0.6420493
vn 0.08432587 -0.7695332 0.633015
vn 0.1597643 -0.7950804 0.5850834
vn 0.1979566 -0.8364156 0.5110989
vn 0.1886688 -0.8824638 0.4308848
vn 0.1343898 -0.9208863 0.3659341
vn 0.04966362 -0.9413874 0.3336516
vn -0.04280752 -0.9384742 0.3426859
vn -0.1182461 -0.9129272 0.3906173
vn -0.1564382 -0.8715917 0.4646021
vn 0.9997835 0.01510192 -0.0143126
vn -0.505581 -0.3743838 -0.7773189
vn -0.4942023 0.3592826 0.7916313
vn -0.01974278 0.905731 -0.4233931
vn 0.01974286 -0.9057305 0.4233939
vt -0.1742401 0.007696719
vt -0.1755661 0.00545479
vt -0.1742887 0.005092451
vt -0.1658527 -0.002569624
vt -0.1680689 -0.003938162
vt -0.1671063 -0.004852803
vt -0.1598929 -0.01545064
vt -0.1624928 -0.01560975
vt -0.1620766 -0.01687064
vt -0.1591286 -0.02700167
vt -0.1614729 -0.02586646
vt -0.1617279 -0.02716957
vt -0.1647319 -0.03168091
vt -0.1661485 -0.02949505
vt -0.1670419 -0.03047734
vt -0.1746557 -0.02565828
vt -0.1746436 -0.02305358
vt -0.1759291 -0.02338604
vt -0.1840704 -0.01124476
vt -0.1826029 -0.009092783
vt -0.1838543 -0.008649015
vt -0.1895954 0.003775307
vt -0.1871933 0.004782633
vt -0.1880019 0.005835808
vt -0.1914779 0.01349048
vt -0.1888995 0.01312104
vt -0.1890524 0.01444003
vt -0.1908612 0.01732487
vt -0.1887885 0.01574737
vt -0.1882802 0.01697405
vt -0.1878773 0.01715158
vt -0.1867914 0.01478403
vt -0.1857654 0.01562696
vt -0.1821949 0.01408288
vt -0.1823324 0.01148179
vt -0.1810324 0.01175197
vt -0.1648792 0.03780938
vt -0.1661627 0.03814931
vt -0.167377 0.03584492
vt -0.1649646 0.03520606
vt -0.1365563 0.02010892
vt -0.1375765 0.02095872
vt -0.1396497 0.01938188
vt -0.1377322 0.01778478
vt -0.1115602 -0.0169402
vt -0.1121545 -0.01575282
vt -0.1146858 -0.01636698
vt -0.1135688 -0.01859851
vt -0.09959675 -0.0623894
vt -0.09965811 -0.061063
vt -0.1022208 -0.0605971
vt -0.1021055 -0.06308991
vt -0.1116674 -0.0956356
vt -0.1110847 -0.09444248
vt -0.1131094 -0.09280384
vt -0.1142046 -0.09504616
vt -0.1580967 -0.07881121
vt -0.1568683 -0.07830706
vt -0.1572919 -0.07573703
vt -0.1596006 -0.07668451
vt -0.1937408 0.003895138
vt -0.1925862 0.003239413
vt -0.190825 0.005158417
vt -0.1929949 0.006390776
vt -0.1909057 0.05376225
vt -0.1904258 0.05252417
vt -0.187848 0.05289724
vt -0.1887499 0.05522404
vt -0.190155 0.05398879
vt -0.1902765 0.052668
vt -0.1877862 0.05197016
vt -0.1875751 0.05434145
vt -0.1927169 0.04309553
vt -0.1933646 0.04193653
vt -0.1913836 0.04033171
vt -0.1901936 0.04252515
vt -0.193194 0.03778268
vt -0.1942641 0.03699676
vt -0.1932323 0.03460515
vt -0.1911621 0.03624278
vt -0.1857243 0.03896536
vt -0.1870276 0.03871158
vt -0.1871155 0.03610834
vt -0.184666 0.03658529
vt -0.1684377 0.02229495
vt -0.1708485 0.02293956
vt -0.1713512 0.02142886
vt -0.1681031 0.02056038
vt -0.1458552 0.009339799
vt -0.1477572 0.01095532
vt -0.1488668 0.009988884
vt -0.1463042 0.007812297
vt -0.1242392 -0.0208055
vt -0.1253042 -0.01854866
vt -0.1267382 -0.01878104
vt -0.1253034 -0.02182167
vt -0.1182558 -0.0572923
vt -0.1182344 -0.05479692
vt -0.1196558 -0.05419262
vt -0.1196846 -0.05755466
vt -0.1372036 -0.07344196
vt -0.1358665 -0.07133491
vt -0.1367698 -0.0698855
vt -0.1385713 -0.07272431
vt -0.169875 -0.04912417
vt -0.1674983 -0.04836363
vt -0.1672513 -0.0464926
vt -0.1704535 -0.04751727
vt -0.1880739 -0.006268444
vt -0.1857731 -0.007234709
vt -0.1843321 -0.005795556
vt -0.187432 -0.004493712
vt -0.1910641 0.02086165
vt -0.189731 0.01875212
vt -0.187674 0.0192871
vt -0.1894702 0.02212925
vt -0.1907287 0.03426831
vt -0.1906739 0.03188955
vt -0.1886168 0.03132556
vt -0.1886471 0.0346861
vt -0.1905357 0.0345803
vt -0.191643 0.03234408
vt -0.1899961 0.03103158
vt -0.188473 0.03402887
vt -0.1884125 0.02811122
vt -0.1904548 0.02643931
vt -0.1893766 0.02482641
vt -0.1867093 0.02687295
vt -0.1825885 0.02503788
vt -0.1850366 0.02455404
vt -0.1847544 0.02281018
vt -0.181456 0.02346205
vt -0.1389985 0.1118026
vt -0.1421796 0.1128911
vt -0.1432377 0.110511
vt -0.1396204 0.1092732
vt -0.06033856 0.1057691
vt -0.06277796 0.1080829
vt -0.06473072 0.1063591
vt -0.06195674 0.103728
vt 3.576783E-05 0.04003937
vt -0.001772163 0.04287406
vt -0.004083616 0.04167334
vt -0.002027715 0.03844984
vt 0.04621387 -0.04297218
vt 0.04477976 -0.03993123
vt 0.04233477 -0.04082935
vt 0.04396559 -0.04428741
vt 0.09248632 -0.1071554
vt 0.09110807 -0.1040888
vt 0.08864705 -0.104942
vt 0.09021436 -0.1084293
vt 0.1737514 -0.0754239
vt 0.1713522 -0.07306849
vt 0.1693701 -0.07475837
vt 0.1720983 -0.07743685
vt 0.02789106 0.1954328
vt 0.02581832 0.1927855
vt 0.02771898 0.1910045
vt 0.03007602 0.1940148
vt -0.06519394 0.1597791
vt -0.0665496 0.1567024
vt -0.06426833 0.1554453
vt -0.06272672 0.158944
vt -0.1075617 0.09369855
vt -0.1090348 0.09067626
vt -0.1068036 0.08933227
vt -0.1051285 0.09276909
vt -0.1434291 0.0304513
vt -0.1453145 0.02766752
vt -0.1432956 0.02602171
vt -0.1411516 0.02918731
vt -0.1778009 0.004141846
vt -0.1803534 0.001953532
vt -0.1788398 -0.0001662649
vt -0.1759372 0.002322202
vt -0.1906052 0.04596791
vt -0.1938643 0.04514169
vt -0.1934502 0.04257008
vt -0.1897441 0.04350963
vt -0.1110422 0.1510172
vt -0.1144493 0.1527521
vt -0.1156312 0.1504309
vt -0.1122242 0.1486961
vt -0.00625928 0.1434653
vt -0.008633593 0.146462
vt -0.01067518 0.1448444
vt -0.008300865 0.1418477
vt 0.05514413 0.07189907
vt 0.05318588 0.07518281
vt 0.05094876 0.07384871
vt 0.052907 0.07056497
vt 0.1024919 -0.006446703
vt 0.1005035 -0.003181141
vt 0.09827871 -0.004535793
vt 0.1002671 -0.007801356
vt 0.1523302 -0.04844537
vt 0.1498432 -0.04554145
vt 0.1478649 -0.04723573
vt 0.1503518 -0.05013967
vt 0.195417 0.01577541
vt 0.1918432 0.01713403
vt 0.1909176 0.01469932
vt 0.1944914 0.0133407
vt 0.1144492 0.1527521
vt 0.1110422 0.1510172
vt 0.1122241 0.1486961
vt 0.1156311 0.1504309
vt 0.008633656 0.146462
vt 0.006259337 0.1434653
vt 0.008300927 0.1418477
vt 0.01067524 0.1448444
vt -0.05318583 0.07518279
vt -0.05514408 0.07189904
vt -0.05290695 0.07056494
vt -0.0509487 0.07384868
vt -0.1005034 -0.003181148
vt -0.1024918 -0.00644671
vt -0.1002671 -0.007801363
vt -0.09827869 -0.004535801
vt -0.1498432 -0.04554146
vt -0.1523302 -0.04844539
vt -0.1503518 -0.05013968
vt -0.1478648 -0.04723575
vt -0.1918432 0.0171341
vt -0.195417 0.01577548
vt -0.1944914 0.01334077
vt -0.1909176 0.01469938
vt -0.02592758 0.1924071
vt -0.02828461 0.1954175
vt -0.03018527 0.1936364
vt -0.02811254 0.1909892
vt 0.06635039 0.1563627
vt 0.06480879 0.1598614
vt 0.06252751 0.1586043
vt 0.06388317 0.1555275
vt 0.1088488 0.09032912
vt 0.1071737 0.09376594
vt 0.1049425 0.09242195
vt 0.1064155 0.08939966
vt 0.1451794 0.02729757
vt 0.1430355 0.03046317
vt 0.1410166 0.02881736
vt 0.142902 0.02603357
vt 0.1803207 0.001561056
vt 0.1774181 0.004049521
vt 0.1759044 0.001929724
vt 0.1784569 -0.0002585882
vt 0.1940093 0.04477553
vt 0.1903033 0.04571509
vt 0.1898892 0.04314348
vt 0.1931482 0.04231725
vt 0.1425011 0.1126637
vt 0.1388837 0.1114258
vt 0.1399419 0.1090457
vt 0.143123 0.1101343
vt 0.06316494 0.1080099
vt 0.06039096 0.1053788
vt 0.06234372 0.103655
vt 0.06478312 0.1059688
vt 0.002165338 0.04289679
vt 0.0001094382 0.03967329
vt 0.002420891 0.03847257
vt 0.004228822 0.04130726
vt -0.04439258 -0.03985887
vt -0.0460234 -0.04331692
vt -0.04357841 -0.04421505
vt -0.0421443 -0.04117409
vt -0.09072229 -0.1040094
vt -0.09228958 -0.1074967
vt -0.08982858 -0.1083499
vt -0.08845033 -0.1052832
vt -0.170964 -0.07313482
vt -0.1736923 -0.07581329
vt -0.1717101 -0.07750316
vt -0.1693109 -0.07514776
vt 0.1659949 0.1040409
vt 0.1675108 0.1070419
vt 0.1650229 0.1078132
vt 0.1638977 0.1055858
vt 0.1458593 0.121441
vt 0.1457484 0.1248014
vt 0.1431957 0.1242836
vt 0.143278 0.1217894
vt 0.1570263 0.0857619
vt 0.156 0.08896361
vt 0.1536865 0.08776697
vt 0.1544482 0.08539058
vt 0.1756265 0.04691022
vt 0.1737584 0.04970564
vt 0.1718637 0.04791827
vt 0.1732503 0.04584344
vt 0.1923119 0.03138245
vt 0.1896131 0.0333876
vt 0.1884292 0.03106751
vt 0.1904323 0.02957922
vt 0.1909592 0.04998751
vt 0.1876672 0.05067039
vt 0.1875698 0.04806749
vt 0.1900133 0.04756063
vt 0.1566721 0.0748028
vt 0.1534354 0.07389272
vt 0.1545478 0.07153748
vt 0.1569501 0.07221296
vt 0.1041986 0.06231885
vt 0.1016175 0.06016438
vt 0.103596 0.05847026
vt 0.1055118 0.06006937
vt 0.05758802 0.00848197
vt 0.05584546 0.00560663
vt 0.05826659 0.004646045
vt 0.05955996 0.006780201
vt 0.02494541 -0.06423823
vt 0.02404546 -0.0674777
vt 0.02663615 -0.06774767
vt 0.02730412 -0.06534325
vt 0.01104763 -0.1321358
vt 0.011099 -0.1354975
vt 0.01366051 -0.135025
vt 0.01362237 -0.1325298
vt 0.06786121 -0.1653617
vt 0.06985042 -0.1680722
vt 0.07166471 -0.1662033
vt 0.07018827 -0.1641914
vt 0.1918458 0.002676203
vt 0.1940158 0.003908557
vt 0.1922545 0.005827566
vt 0.1910999 0.005171842
vt 0.190135 0.05178192
vt 0.191037 0.05410872
vt 0.1884591 0.05448178
vt 0.1879792 0.05324372
vt 0.1889376 0.0554235
vt 0.1886614 0.05790366
vt 0.1862032 0.05704247
vt 0.1863501 0.0557228
vt 0.1926872 0.04430144
vt 0.1914376 0.04646148
vt 0.1895327 0.04468494
vt 0.1901976 0.04353561
vt 0.1947848 0.0372649
vt 0.1927706 0.03873815
vt 0.1917433 0.0363446
vt 0.192815 0.0355607
vt 0.1872801 0.03889987
vt 0.1848306 0.03937683
vt 0.1849185 0.03677358
vt 0.1862218 0.0365198
vt 0.166299 0.0385954
vt 0.1638867 0.03795653
vt 0.1651009 0.03565214
vt 0.1663845 0.03599207
vt 0.1375259 0.02159785
vt 0.1356084 0.02000076
vt 0.1376816 0.01842391
vt 0.1387019 0.01927371
vt 0.1118832 -0.01499914
vt 0.1107662 -0.01723067
vt 0.1132975 -0.01784483
vt 0.1138918 -0.01665746
vt 0.09914258 -0.0602963
vt 0.09902726 -0.06278912
vt 0.10159 -0.06232322
vt 0.1016513 -0.06099681
vt 0.1102952 -0.09383718
vt 0.1113904 -0.09607951
vt 0.1134151 -0.09444086
vt 0.1128324 -0.09324774
vt 0.155875 -0.07820988
vt 0.1581836 -0.07915736
vt 0.1586073 -0.07658732
vt 0.1573789 -0.07608318
vt 0.1830971 -0.01149857
vt 0.1843485 -0.0110548
vt 0.182881 -0.008902819
vt 0.1888773 0.003220361
vt 0.189686 0.004273535
vt 0.1872839 0.005280864
vt 0.1911036 0.0128335
vt 0.1912565 0.01415249
vt 0.1886781 0.01378305
vt 0.1908119 0.01675738
vt 0.1903036 0.01798406
vt 0.1882309 0.01640656
vt 0.1880646 0.01681628
vt 0.1870387 0.01765921
vt 0.1859527 0.01529166
vt 0.1824882 0.01406123
vt 0.1811882 0.01433142
vt 0.1813257 0.01173033
vt 0.1744926 0.008003542
vt 0.1732151 0.0076412
vt 0.1745412 0.005399274
vt 0.1659237 -0.001990242
vt 0.1649611 -0.002904884
vt 0.1671773 -0.00427342
vt 0.1596778 -0.01471311
vt 0.1592616 -0.01597401
vt 0.1618614 -0.01613311
vt 0.1585762 -0.02627197
vt 0.1588312 -0.02757508
vt 0.1611755 -0.02643986
vt 0.1638718 -0.0311509
vt 0.1647652 -0.03213318
vt 0.1661818 -0.02994733
vt 0.1736279 -0.02549588
vt 0.1749134 -0.02582833
vt 0.1749012 -0.02322364
vt 0.1898998 0.07147907
vt 0.1839334 0.0725527
vt 0.1834891 0.07008328
vt 0.1894554 0.06900965
vt -0.1292683 -0.01024591
vt -0.132495 -0.01537799
vt -0.1303709 -0.0167135
vt -0.1271442 -0.01158142
vt 0.03412546 0.1316541
vt 0.0306194 0.1365996
vt 0.02857252 0.1351484
vt 0.03207858 0.130203
vt -0.1705375 -0.01531814
vt -0.168065 -0.009783112
vt -0.1740947 -0.01040935
vt 0.1740948 -0.01040926
vt 0.168065 -0.009783025
vt 0.1705376 -0.01531805
o group1865165591
g mesh1865165591
usemtl mat15
f 3/3/1 2/2/1 1/1/1
f 2/6/2 4/5/2 1/4/2
f 4/9/3 5/8/3 1/7/3
f 5/12/4 6/11/4 1/10/4
f 6/15/5 7/14/5 1/13/5
f 7/18/6 8/17/6 1/16/6
f 8/21/7 9/20/7 1/19/7
f 9/24/8 10/23/8 1/22/8
f 10/27/9 11/26/9 1/25/9
f 11/30/10 12/29/10 1/28/10
f 12/33/11 13/32/11 1/31/11
f 13/36/12 3/35/12 1/34/12
f 15/40/13 14/39/13 2/38/13 3/37/13
f 14/44/14 16/43/14 4/42/14 2/41/14
f 16/48/15 17/47/15 5/46/15 4/45/15
f 17/52/16 18/51/16 6/50/16 5/49/16
f 18/56/17 19/55/17 7/54/17 6/53/17
f 19/60/18 20/59/18 8/58/18 7/57/18
f 20/64/19 21/63/19 9/62/19 8/61/19
f 21/68/20 22/67/20 10/66/20 9/65/20
f 22/72/21 23/71/21 11/70/21 10/69/21
f 23/76/22 24/75/22 12/74/22 11/73/22
f 24/80/23 25/79/23 13/78/23 12/77/23
f 25/84/24 15/83/24 3/82/24 13/81/24
f 27/88/25 26/87/25 14/86/25 15/85/25
f 26/92/26 28/91/26 16/90/26 14/89/26
f 28/96/27 29/95/27 17/94/27 16/93/27
f 29/100/28 30/99/28 18/98/28 17/97/28
f 30/104/29 31/103/29 19/102/29 18/101/29
f 31/108/30 32/107/30 20/106/30 19/105/30
f 32/112/31 33/111/31 21/110/31 20/109/31
f 33/116/32 34/115/32 22/114/32 21/113/32
f 34/120/33 35/119/33 23/118/33 22/117/33
f 35/124/34 36/123/34 24/122/34 23/121/34
f 36/128/35 37/127/35 25/126/35 24/125/35
f 37/132/36 27/131/36 15/130/36 25/129/36
f 39/136/37 38/135/37 26/134/37 27/133/37
f 38/140/38 40/139/38 28/138/38 26/137/38
f 40/144/39 41/143/39 29/142/39 28/141/39
f 41/148/40 42/147/40 30/146/40 29/145/40
f 42/152/41 43/151/41 31/150/41 30/149/41
f 43/156/42 44/155/42 32/154/42 31/153/42
f 44/160/43 45/159/43 33/158/43 32/157/43
f 45/164/44 46/163/44 34/162/44 33/161/44
f 46/168/45 47/167/45 35/166/45 34/165/45
f 47/172/46 48/171/46 36/170/46 35/169/46
f 48/176/47 49/175/47 37/174/47 36/173/47
f 49/180/48 39/179/48 27/178/48 37/177/48
f 51/184/49 50/183/49 38/182/49 39/181/49
f 50/188/50 52/187/50 40/186/50 38/185/50
f 52/192/51 53/191/51 41/190/51 40/189/51
f 53/196/52 54/195/52 42/194/52 41/193/52
f 54/200/53 55/199/53 43/198/53 42/197/53
f 55/204/54 56/203/54 44/202/54 43/201/54
f 56/208/55 57/207/55 45/206/55 44/205/55
f 57/212/56 58/211/56 46/210/56 45/209/56
f 58/216/57 59/215/57 47/214/57 46/213/57
f 59/220/58 60/219/58 48/218/58 47/217/58
f 60/224/59 61/223/59 49/222/59 48/221/59
f 61/228/60 51/227/60 39/226/60 49/225/60
f 63/232/61 62/231/61 50/230/61 51/229/61
f 62/236/62 64/235/62 52/234/62 50/233/62
f 64/240/63 65/239/63 53/238/63 52/237/63
f 65/244/64 66/243/64 54/242/64 53/241/64
f 66/248/65 67/247/65 55/246/65 54/245/65
f 67/252/66 68/251/66 56/250/66 55/249/66
f 68/256/67 69/255/67 57/254/67 56/253/67
f 69/260/68 70/259/68 58/258/68 57/257/68
f 70/264/69 71/263/69 59/262/69 58/261/69
f 71/268/70 72/267/70 60/266/70 59/265/70
f 72/272/71 73/271/71 61/270/71 60/269/71
f 73/276/72 63/275/72 51/274/72 61/273/72
f 75/280/73 74/279/73 62/278/73 63/277/73
f 74/284/74 76/283/74 64/282/74 62/281/74
f 76/288/75 77/287/75 65/286/75 64/285/75
f 77/292/76 78/291/76 66/290/76 65/289/76
f 78/296/77 79/295/77 67/294/77 66/293/77
f 79/300/78 80/299/78 68/298/78 67/297/78
f 80/304/79 81/303/79 69/302/79 68/301/79
f 81/308/80 82/307/80 70/306/80 69/305/80
f 82/312/81 83/311/81 71/310/81 70/309/81
f 83/316/82 84/315/82 72/314/82 71/313/82
f 84/320/83 85/319/83 73/318/83 72/317/83
f 85/324/84 75/323/84 63/322/84 73/321/84
f 87/328/85 86/327/85 74/326/85 75/325/85
f 86/332/86 88/331/86 76/330/86 74/329/86
f 88/336/87 89/335/87 77/334/87 76/333/87
f 89/340/88 90/339/88 78/338/88 77/337/88
f 90/344/89 91/343/89 79/342/89 78/341/89
f 91/348/90 92/347/90 80/346/90 79/345/90
f 92/352/91 93/351/91 81/350/91 80/349/91
f 93/356/92 94/355/92 82/354/92 81/353/92
f 94/360/93 95/359/93 83/358/93 82/357/93
f 95/364/94 96/363/94 84/362/94 83/361/94
f 96/368/95 97/367/95 85/366/95 84/365/95
f 97/372/96 87/371/96 75/370/96 85/369/96
f 98/375/97 86/374/97 87/373/97
f 98/378/98 88/377/98 86/376/98
f 98/381/99 89/380/99 88/379/99
f 98/384/100 90/383/100 89/382/100
f 98/387/101 91/386/101 90/385/101
f 98/390/102 92/389/102 91/388/102
f 98/393/103 93/392/103 92/391/103
f 98/396/104 94/395/104 93/394/104
f 98/399/105 95/398/105 94/397/105
f 98/402/106 96/401/106 95/400/106
f 98/405/107 97/404/107 96/403/107
f 98/408/108 87/407/108 97/406/108
o group581743819
g mesh581743819
usemtl mat17
f 102/412/109 101/411/109 100/410/109 99/409/109
f 101/416/110 104/415/110 103/414/110 100/413/110
f 104/420/111 102/419/111 99/418/111 103/417/111
f 99/423/112 100/422/112 103/421/112
f 104/426/113 101/425/113 102/424/113
